<?xml version="1.0" standalone="no"?><!DOCTYPE svg PUBLIC "-//W3C//DTD SVG 1.1//EN" "http://www.w3.org/Graphics/SVG/1.1/DTD/svg11.dtd"><svg t="1729787330433" class="icon" viewBox="0 0 1024 1024" version="1.1" xmlns="http://www.w3.org/2000/svg" p-id="1530" xmlns:xlink="http://www.w3.org/1999/xlink" width="200" height="200"><path d="M510.084488 258.101811m5.910726-35.511453l24.872665-149.434169q5.910726-35.511453 41.42218-29.600726l0 0q35.511453 5.910726 29.600727 41.422179l-24.872665 149.434169q-5.910726 35.511453-41.42218 29.600726l0 0q-35.511453-5.910726-29.600727-41.422179Z" fill="#000000" p-id="1531"></path><path d="M190.13808 116.601198m29.289904-20.930874l0 0q29.289904-20.930875 50.220779 8.359029l88.078283 123.253544q20.930875 29.289904-8.35903 50.220779l0 0q-29.289904 20.930875-50.220779-8.359029l-88.078283-123.253544q-20.930875-29.289904 8.35903-50.220779Z" fill="#000000" p-id="1532"></path><path d="M62.641736 446.131394m5.910727-35.511453l0 0q5.910726-35.511453 41.422179-29.600727l149.434169 24.872665q35.511453 5.910726 29.600726 41.42218l0 0q-5.910726 35.511453-41.422179 29.600727l-149.434169-24.872665q-35.511453-5.910726-29.600726-41.42218Z" fill="#000000" p-id="1533"></path><path d="M124.818031 714.230926m29.289904-20.930875l123.253544-88.078283q29.289904-20.930875 50.220779 8.359029l0 0q20.930875 29.289904-8.35903 50.220779l-123.253544 88.078283q-29.289904 20.930875-50.220779-8.359029l0 0q-20.930875-29.289904 8.35903-50.220779Z" fill="#000000" p-id="1534"></path><path d="M955.836 580.914l-554.69-264.936c-7.973-3.808-17.524-0.432-21.333 7.542a16 16 0 0 0-1.24 10.094L501.45 935.921c1.766 8.658 10.217 14.245 18.875 12.479a16 16 0 0 0 8.394-4.649l110.545-116.192 87.592 112.113c10.88 13.926 30.99 16.395 44.917 5.515L899.43 845.45c13.926-10.881 16.396-30.991 5.515-44.918L817.353 688.42l139.484-79.151c7.685-4.362 10.38-14.127 6.019-21.813a16 16 0 0 0-7.02-6.54zM471.603 429.422l356.345 170.2-118.71 67.363 114.344 146.354-64.617 50.484L644.62 717.47l-94.08 98.888-78.937-386.935z" fill="#000000" p-id="1535"></path><path d="M669.496449 325.005112m29.289904-20.930875l123.253544-88.078283q29.289904-20.930875 50.220779 8.35903l0 0q20.930875 29.289904-8.359029 50.220779l-123.253544 88.078283q-29.289904 20.930875-50.220779-8.35903l0 0q-20.930875-29.289904 8.359029-50.220779Z" fill="#000000" p-id="1536"></path></svg>